{
  "accessors": [
    {
      "bufferView": 2,
      "componentType": 5126,
      "count": 151,
      "max": [
        0.27866291999816895,
        0.33375450968742371,
        0.33256810903549194
      ],
      "min": [
        0,
        -0.32461166381835938,
        -0.32814645767211914
      ],
      "type": "VEC3"
    },
    {
      "bufferView": 2,
      "byteOffset": 1812,
      "componentType": 5126,
      "count": 151,
      "max": [
        1,
        0.99891853332519531,
        1
      ],
      "min": [
        -1,
        -0.97155457735061646,
        -0.98213410377502441
      ],
      "type": "VEC3"
    },
    {
      "bufferView": 1,
      "componentType": 5126,
      "count": 151,
      "max": [
        0.98215526342391968,
        0.69064193964004517
      ],
      "min": [
        0.16834622621536255,
        0.240242600440979
      ],
      "type": "VEC2"
    },
    {
      "bufferView": 0,
      "componentType": 5125,
      "count": 333,
      "max": [
        150
      ],
      "min": [
        0
      ],
      "type": "SCALAR"
    },
    {
      "bufferView": 2,
      "byteOffset": 3624,
      "componentType": 5126,
      "count": 151,
      "max": [
        0.27866291999816895,
        0.33375450968742371,
        0.33256810903549194
      ],
      "min": [
        0,
        -0.32461166381835938,
        -0.32814645767211914
      ],
      "type": "VEC3"
    },
    {
      "bufferView": 2,
      "byteOffset": 5436,
      "componentType": 5126,
      "count": 151,
      "max": [
        1,
        0.99891853332519531,
        1
      ],
      "min": [
        -1,
        -0.97155457735061646,
        -0.98213410377502441
      ],
      "type": "VEC3"
    },
    {
      "bufferView": 1,
      "byteOffset": 1208,
      "componentType": 5126,
      "count": 151,
      "max": [
        0.98215526342391968,
        0.69064193964004517
      ],
      "min": [
        0.16834622621536255,
        0.240242600440979
      ],
      "type": "VEC2"
    },
    {
      "bufferView": 0,
      "byteOffset": 1332,
      "componentType": 5125,
      "count": 333,
      "max": [
        150
      ],
      "min": [
        0
      ],
      "type": "SCALAR"
    },
    {
      "bufferView": 2,
      "byteOffset": 7248,
      "componentType": 5126,
      "count": 151,
      "max": [
        0.27866291999816895,
        0.33375450968742371,
        0.33256810903549194
      ],
      "min": [
        0,
        -0.32461166381835938,
        -0.32814645767211914
      ],
      "type": "VEC3"
    },
    {
      "bufferView": 2,
      "byteOffset": 9060,
      "componentType": 5126,
      "count": 151,
      "max": [
        1,
        0.99891853332519531,
        1
      ],
      "min": [
        -1,
        -0.97155457735061646,
        -0.98213410377502441
      ],
      "type": "VEC3"
    },
    {
      "bufferView": 1,
      "byteOffset": 2416,
      "componentType": 5126,
      "count": 151,
      "max": [
        0.98215526342391968,
        0.69064193964004517
      ],
      "min": [
        0.16834622621536255,
        0.240242600440979
      ],
      "type": "VEC2"
    },
    {
      "bufferView": 0,
      "byteOffset": 2664,
      "componentType": 5125,
      "count": 333,
      "max": [
        150
      ],
      "min": [
        0
      ],
      "type": "SCALAR"
    },
    {
      "bufferView": 2,
      "byteOffset": 10872,
      "componentType": 5126,
      "count": 151,
      "max": [
        0.27866291999816895,
        0.33375450968742371,
        0.33256810903549194
      ],
      "min": [
        0,
        -0.32461166381835938,
        -0.32814645767211914
      ],
      "type": "VEC3"
    },
    {
      "bufferView": 2,
      "byteOffset": 12684,
      "componentType": 5126,
      "count": 151,
      "max": [
        1,
        0.99891853332519531,
        1
      ],
      "min": [
        -1,
        -0.97155457735061646,
        -0.98213410377502441
      ],
      "type": "VEC3"
    },
    {
      "bufferView": 1,
      "byteOffset": 3624,
      "componentType": 5126,
      "count": 151,
      "max": [
        0.98215526342391968,
        0.69064193964004517
      ],
      "min": [
        0.16834622621536255,
        0.240242600440979
      ],
      "type": "VEC2"
    },
    {
      "bufferView": 0,
      "byteOffset": 3996,
      "componentType": 5125,
      "count": 333,
      "max": [
        150
      ],
      "min": [
        0
      ],
      "type": "SCALAR"
    },
    {
      "bufferView": 2,
      "byteOffset": 14496,
      "componentType": 5126,
      "count": 4192,
      "max": [
        0.77167737483978271,
        1.7256362438201904,
        1.8020811080932617
      ],
      "min": [
        -0.77167737483978271,
        -1.6981796026229858,
        0.22680604457855225
      ],
      "type": "VEC3"
    },
    {
      "bufferView": 2,
      "byteOffset": 64800,
      "componentType": 5126,
      "count": 4192,
      "max": [
        1,
        1,
        1
      ],
      "min": [
        -1,
        -1,
        -1
      ],
      "type": "VEC3"
    },
    {
      "bufferView": 1,
      "byteOffset": 4832,
      "componentType": 5126,
      "count": 4192,
      "max": [
        2.8759312629699707,
        0.99275779724121094
      ],
      "min": [
        0.0031464544590562582,
        0.0031464432831853628
      ],
      "type": "VEC2"
    },
    {
      "bufferView": 0,
      "byteOffset": 5328,
      "componentType": 5125,
      "count": 9702,
      "max": [
        4191
      ],
      "min": [
        0
      ],
      "type": "SCALAR"
    },
    {
      "bufferView": 2,
      "byteOffset": 115104,
      "componentType": 5126,
      "count": 67,
      "max": [
        0.70339715480804443,
        1.4700281620025635,
        1.7208633422851562
      ],
      "min": [
        -0.70339715480804443,
        -0.81147724390029907,
        1.2204318046569824
      ],
      "type": "VEC3"
    },
    {
      "bufferView": 2,
      "byteOffset": 115908,
      "componentType": 5126,
      "count": 67,
      "max": [
        0.98786288499832153,
        0.97049546241760254,
        0.4541950523853302
      ],
      "min": [
        -0.98786288499832153,
        -0.97049099206924438,
        -0.45419502258300781
      ],
      "type": "VEC3"
    },
    {
      "bufferView": 1,
      "byteOffset": 38368,
      "componentType": 5126,
      "count": 67,
      "max": [
        0.99238741397857666,
        0.98945939540863037
      ],
      "min": [
        0.12372027337551117,
        0.13705430924892426
      ],
      "type": "VEC2"
    },
    {
      "bufferView": 0,
      "byteOffset": 44136,
      "componentType": 5125,
      "count": 120,
      "max": [
        66
      ],
      "min": [
        0
      ],
      "type": "SCALAR"
    },
    {
      "bufferView": 2,
      "byteOffset": 116712,
      "componentType": 5126,
      "count": 295,
      "max": [
        0.11833643913269043,
        0.82789397239685059,
        0.52033126354217529
      ],
      "min": [
        -0.11925959587097168,
        -0.0084456140175461769,
        -0.46949917078018188
      ],
      "type": "VEC3"
    },
    {
      "bufferView": 2,
      "byteOffset": 120252,
      "componentType": 5126,
      "count": 295,
      "max": [
        1,
        1,
        1
      ],
      "min": [
        -1,
        -1,
        -1
      ],
      "type": "VEC3"
    },
    {
      "bufferView": 1,
      "byteOffset": 38904,
      "componentType": 5126,
      "count": 295,
      "max": [
        1.9934756755828857,
        0.99662113189697266
      ],
      "min": [
        1.0031464099884033,
        0.33624547719955444
      ],
      "type": "VEC2"
    },
    {
      "bufferView": 0,
      "byteOffset": 44616,
      "componentType": 5125,
      "count": 537,
      "max": [
        294
      ],
      "min": [
        0
      ],
      "type": "SCALAR"
    },
    {
      "bufferView": 2,
      "byteOffset": 123792,
      "componentType": 5126,
      "count": 20,
      "max": [
        0.10447263717651367,
        0.7855454683303833,
        0.49660849571228027
      ],
      "min": [
        0.03760683536529541,
        0.098561584949493408,
        0.095704555511474609
      ],
      "type": "VEC3"
    },
    {
      "bufferView": 2,
      "byteOffset": 124032,
      "componentType": 5126,
      "count": 20,
      "max": [
        0.98783475160598755,
        0.0065152030438184738,
        0.16623321175575256
      ],
      "min": [
        -0.98783475160598755,
        -0.0065152947790920734,
        -0.16623327136039734
      ],
      "type": "VEC3"
    },
    {
      "bufferView": 1,
      "byteOffset": 41264,
      "componentType": 5126,
      "count": 20,
      "max": [
        1.2682991027832031,
        0.8374519944190979
      ],
      "min": [
        1.1525639295578003,
        0.76991230249404907
      ],
      "type": "VEC2"
    },
    {
      "bufferView": 0,
      "byteOffset": 46764,
      "componentType": 5125,
      "count": 48,
      "max": [
        19
      ],
      "min": [
        0
      ],
      "type": "SCALAR"
    },
    {
      "bufferView": 2,
      "byteOffset": 124272,
      "componentType": 5126,
      "count": 295,
      "max": [
        0.119259312748909,
        0.82789397239685059,
        0.52033126354217529
      ],
      "min": [
        -0.11833672225475311,
        -0.0084456140175461769,
        -0.46949917078018188
      ],
      "type": "VEC3"
    },
    {
      "bufferView": 2,
      "byteOffset": 127812,
      "componentType": 5126,
      "count": 295,
      "max": [
        1,
        1,
        1
      ],
      "min": [
        -1,
        -1,
        -1
      ],
      "type": "VEC3"
    },
    {
      "bufferView": 1,
      "byteOffset": 41424,
      "componentType": 5126,
      "count": 295,
      "max": [
        0.99347561597824097,
        0.99662113189697266
      ],
      "min": [
        0.0031464544590562582,
        0.33624547719955444
      ],
      "type": "VEC2"
    },
    {
      "bufferView": 0,
      "byteOffset": 46956,
      "componentType": 5125,
      "count": 537,
      "max": [
        294
      ],
      "min": [
        0
      ],
      "type": "SCALAR"
    },
    {
      "bufferView": 2,
      "byteOffset": 131352,
      "componentType": 5126,
      "count": 20,
      "max": [
        -0.037607073783874512,
        0.7855454683303833,
        0.49660849571228027
      ],
      "min": [
        -0.10447287559509277,
        0.098561584949493408,
        0.095704555511474609
      ],
      "type": "VEC3"
    },
    {
      "bufferView": 2,
      "byteOffset": 131592,
      "componentType": 5126,
      "count": 20,
      "max": [
        0.98783475160598755,
        0.0065169380977749825,
        0.16623324155807495
      ],
      "min": [
        -0.98783475160598755,
        -0.0065170004963874817,
        -0.16623328626155853
      ],
      "type": "VEC3"
    },
    {
      "bufferView": 1,
      "byteOffset": 43784,
      "componentType": 5126,
      "count": 20,
      "max": [
        0.26829904317855835,
        0.8374519944190979
      ],
      "min": [
        0.15256392955780029,
        0.76991230249404907
      ],
      "type": "VEC2"
    },
    {
      "bufferView": 0,
      "byteOffset": 49104,
      "componentType": 5125,
      "count": 48,
      "max": [
        19
      ],
      "min": [
        0
      ],
      "type": "SCALAR"
    }
  ],
  "asset": {
    "extras": {
      "author": "aaadragon (https://sketchfab.com/aaadragon)",
      "license": "CC-BY-4.0 (http://creativecommons.org/licenses/by/4.0/)",
      "source": "https://sketchfab.com/3d-models/luaz-free-model-172d9676de3541808f422eee16f47e72",
      "title": "LUAZ. free model"
    },
    "generator": "Sketchfab-10.20.0",
    "version": "2.0"
  },
  "bufferViews": [
    {
      "buffer": 0,
      "byteLength": 49296,
      "byteOffset": 0,
      "name": "floatBufferViews",
      "target": 34963
    },
    {
      "buffer": 0,
      "byteLength": 43944,
      "byteOffset": 49296,
      "byteStride": 8,
      "name": "floatBufferViews",
      "target": 34962
    },
    {
      "buffer": 0,
      "byteLength": 131832,
      "byteOffset": 93240,
      "byteStride": 12,
      "name": "floatBufferViews",
      "target": 34962
    }
  ],
  "buffers": [
    {
      "byteLength": 225072,
      "uri": "scene.bin"
    }
  ],
  "images": [
    {
      "uri": "textures/luaz_diffuse_baseColor.png"
    },
    {
      "uri": "textures/luaz_transparent_baseColor.png"
    }
  ],
  "materials": [
    {
      "doubleSided": false,
      "name": "luaz_diffuse",
      "pbrMetallicRoughness": {
        "baseColorFactor": [
          1,
          1,
          1,
          1
        ],
        "baseColorTexture": {
          "index": 0,
          "texCoord": 0
        },
        "metallicFactor": 0,
        "roughnessFactor": 0.18904133351072072
      }
    },
    {
      "alphaMode": "BLEND",
      "doubleSided": false,
      "name": "luaz_transparent",
      "pbrMetallicRoughness": {
        "baseColorFactor": [
          1,
          1,
          1,
          1
        ],
        "baseColorTexture": {
          "index": 1,
          "texCoord": 0
        },
        "metallicFactor": 0,
        "roughnessFactor": 0.12014794915452942
      }
    }
  ],
  "meshes": [
    {
      "name": "wheel_FR_luaz_diffuse_0",
      "primitives": [
        {
          "attributes": {
            "NORMAL": 1,
            "POSITION": 0,
            "TEXCOORD_0": 2
          },
          "indices": 3,
          "material": 0,
          "mode": 4
        }
      ]
    },
    {
      "name": "wheel_FL_luaz_diffuse_0",
      "primitives": [
        {
          "attributes": {
            "NORMAL": 5,
            "POSITION": 4,
            "TEXCOORD_0": 6
          },
          "indices": 7,
          "material": 0,
          "mode": 4
        }
      ]
    },
    {
      "name": "wheel_RL_luaz_diffuse_0",
      "primitives": [
        {
          "attributes": {
            "NORMAL": 9,
            "POSITION": 8,
            "TEXCOORD_0": 10
          },
          "indices": 11,
          "material": 0,
          "mode": 4
        }
      ]
    },
    {
      "name": "wheel_RR_luaz_diffuse_0",
      "primitives": [
        {
          "attributes": {
            "NORMAL": 13,
            "POSITION": 12,
            "TEXCOORD_0": 14
          },
          "indices": 15,
          "material": 0,
          "mode": 4
        }
      ]
    },
    {
      "name": "body_luaz_diffuse_0",
      "primitives": [
        {
          "attributes": {
            "NORMAL": 17,
            "POSITION": 16,
            "TEXCOORD_0": 18
          },
          "indices": 19,
          "material": 0,
          "mode": 4
        }
      ]
    },
    {
      "name": "body_luaz_transparent_0",
      "primitives": [
        {
          "attributes": {
            "NORMAL": 21,
            "POSITION": 20,
            "TEXCOORD_0": 22
          },
          "indices": 23,
          "material": 1,
          "mode": 4
        }
      ]
    },
    {
      "name": "door_R_luaz_diffuse_0",
      "primitives": [
        {
          "attributes": {
            "NORMAL": 25,
            "POSITION": 24,
            "TEXCOORD_0": 26
          },
          "indices": 27,
          "material": 0,
          "mode": 4
        }
      ]
    },
    {
      "name": "door_R_luaz_transparent_0",
      "primitives": [
        {
          "attributes": {
            "NORMAL": 29,
            "POSITION": 28,
            "TEXCOORD_0": 30
          },
          "indices": 31,
          "material": 1,
          "mode": 4
        }
      ]
    },
    {
      "name": "door_L_luaz_diffuse_0",
      "primitives": [
        {
          "attributes": {
            "NORMAL": 33,
            "POSITION": 32,
            "TEXCOORD_0": 34
          },
          "indices": 35,
          "material": 0,
          "mode": 4
        }
      ]
    },
    {
      "name": "door_L_luaz_transparent_0",
      "primitives": [
        {
          "attributes": {
            "NORMAL": 37,
            "POSITION": 36,
            "TEXCOORD_0": 38
          },
          "indices": 39,
          "material": 1,
          "mode": 4
        }
      ]
    }
  ],
  "nodes": [
    {
      "children": [
        1
      ],
      "name": "RootNode (gltf orientation matrix)",
      "rotation": [
        -0.70710678118654746,
        -0,
        -0,
        0.70710678118654757
      ]
    },
    {
      "children": [
        2
      ],
      "name": "RootNode (model correction matrix)"
    },
    {
      "children": [
        3
      ],
      "matrix": [
        1,
        0,
        0,
        0,
        0,
        0,
        1,
        0,
        0,
        -1,
        0,
        0,
        0,
        0,
        0,
        1
      ],
      "name": "luaz.fbx"
    },
    {
      "children": [
        4,
        6,
        8,
        10,
        12,
        15,
        18
      ],
      "name": "RootNode"
    },
    {
      "children": [
        5
      ],
      "matrix": [
        -0.99999994039527929,
        1.224646514892747e-16,
        3.8941435454439539e-07,
        0,
        3.8941437775529995e-07,
        7.5497899820753389e-08,
        0.99999999999992129,
        0,
        -2.9277501203189022e-14,
        0.99999994039535223,
        -7.5497895209705593e-08,
        0,
        -0.4833284318447113,
        0.32464361190795898,
        0.87647151947021484,
        1
      ],
      "name": "wheel_FR"
    },
    {
      "mesh": 0,
      "name": "wheel_FR_luaz_diffuse_0"
    },
    {
      "children": [
        7
      ],
      "matrix": [
        0.99999994039535522,
        0,
        0,
        0,
        0,
        -1.6292067939183141e-07,
        -0.99999999999998679,
        0,
        0,
        0.99999994039534201,
        -1.6292066968100218e-07,
        0,
        0.4833284318447113,
        0.32464361190795898,
        0.87647151947021484,
        1
      ],
      "name": "wheel_FL"
    },
    {
      "mesh": 1,
      "name": "wheel_FL_luaz_diffuse_0"
    },
    {
      "children": [
        9
      ],
      "matrix": [
        0.99999994039535522,
        0,
        0,
        0,
        0,
        -1.6292067939183141e-07,
        -0.99999999999998679,
        0,
        0,
        0.99999994039534201,
        -1.6292066968100218e-07,
        0,
        0.51421618461608887,
        0.32464361190795898,
        -0.97584998607635498,
        1
      ],
      "name": "wheel_RL"
    },
    {
      "mesh": 2,
      "name": "wheel_RL_luaz_diffuse_0"
    },
    {
      "children": [
        11
      ],
      "matrix": [
        -0.99999999999998845,
        1.2246469849340659e-16,
        1.5099579909783709e-07,
        0,
        1.5099579909783667e-07,
        7.5497899931775692e-08,
        0.99999999999998568,
        0,
        -1.1277401014022499e-14,
        0.999999999999997,
        -7.5497899709731087e-08,
        0,
        -0.52260893583297729,
        0.32464361190795898,
        -0.97584998607635498,
        1
      ],
      "name": "wheel_RR"
    },
    {
      "mesh": 3,
      "name": "wheel_RR_luaz_diffuse_0"
    },
    {
      "children": [
        13,
        14
      ],
      "matrix": [
        1,
        0,
        0,
        0,
        0,
        -1.6292067939183141e-07,
        -0.99999999999998679,
        0,
        0,
        0.99999999999998679,
        -1.6292067939183141e-07,
        0,
        0,
        0,
        0,
        1
      ],
      "name": "body"
    },
    {
      "mesh": 4,
      "name": "body_luaz_diffuse_0"
    },
    {
      "mesh": 5,
      "name": "body_luaz_transparent_0"
    },
    {
      "children": [
        16,
        17
      ],
      "matrix": [
        1,
        0,
        0,
        0,
        -0,
        -1.6292067939183141e-07,
        -0.99999999999998679,
        0,
        0,
        0.99999999999998679,
        -1.6292067939183141e-07,
        0,
        -0.74226093292236328,
        1.1549839973449707,
        0.78287333250045776,
        1
      ],
      "name": "door_R"
    },
    {
      "mesh": 6,
      "name": "door_R_luaz_diffuse_0"
    },
    {
      "mesh": 7,
      "name": "door_R_luaz_transparent_0"
    },
    {
      "children": [
        19,
        20
      ],
      "matrix": [
        1,
        0,
        0,
        0,
        0,
        -1.6292067939183141e-07,
        -0.99999999999998679,
        0,
        0,
        0.99999999999998679,
        -1.6292067939183141e-07,
        0,
        0.74226117134094238,
        1.1549839973449707,
        0.78287333250045776,
        1
      ],
      "name": "door_L"
    },
    {
      "mesh": 8,
      "name": "door_L_luaz_diffuse_0"
    },
    {
      "mesh": 9,
      "name": "door_L_luaz_transparent_0"
    }
  ],
  "samplers": [
    {
      "magFilter": 9729,
      "minFilter": 9987,
      "wrapS": 10497,
      "wrapT": 10497
    }
  ],
  "scene": 0,
  "scenes": [
    {
      "name": "OSG_Scene",
      "nodes": [
        0
      ]
    }
  ],
  "textures": [
    {
      "sampler": 0,
      "source": 0
    },
    {
      "sampler": 0,
      "source": 1
    }
  ]
}

